# xmcd CD database file generated by Grip 3.2.0
# 
# Track frame offsets:
#       150
#       14488
#       28574
#       47087
#       65993
#       88234
#       103684
#       125018
#       136735
#       157848
#       175076
#       189094
#       208682
#       225115
#       238300
#       252564
# 
# Disc length: 3505 seconds
# 
# Revision: 1
# Processed by: cddbd v1.5.2PL0 Copyright (c) Steve Scherf et al.
# Submitted via: Grip 3.2.0
# 
DISCID=d80daf10
DTITLE=Magda Piskorczyk - Blues Travelling
DYEAR=2005
DGENRE=Blues
TTITLE0=Help Me
TTITLE1=Darkness On The Delta
TTITLE2=I Want Jesus To Walk With Me
TTITLE3=Nothin' Like You Used To Do
TTITLE4=Miss Cellie's Blues
TTITLE5=Lonely Avenue
TTITLE6=I've Got The Blues And I Can't Be Satisfied
TTITLE7=Keep Your Lamp Trimmed And Burning
TTITLE8=I'd rather Go Blind
TTITLE9=Get Back
TTITLE10=Work Song
TTITLE11=Wild Wiman Don't Have No Blues
TTITLE12=Temptation
TTITLE13=Canned Heat
TTITLE14=Trouble In Mind
TTITLE15=I Let My Daddy Do That
EXTD=
EXTT0=
EXTT1=
EXTT2=
EXTT3=
EXTT4=
EXTT5=
EXTT6=
EXTT7=
EXTT8=
EXTT9=
EXTT10=
EXTT11=
EXTT12=
EXTT13=
EXTT14=
EXTT15=
PLAYORDER=
